<svg width="18" height="18" viewBox="0 0 18 18" fill="none" xmlns="http://www.w3.org/2000/svg">
<rect width="18" height="18" rx="2" fill="#3A3A3A"/>
<path d="M7.347 11.1245C7.42767 11.1245 7.49917 11.1557 7.5615 11.218L8.1445 11.8505C7.82183 12.2502 7.424 12.5563 6.951 12.769C6.48167 12.9817 5.917 13.088 5.257 13.088C4.66667 13.088 4.135 12.9872 3.662 12.7855C3.19267 12.5838 2.79117 12.3033 2.4575 11.944C2.12383 11.5847 1.86717 11.1557 1.6875 10.657C1.5115 10.1583 1.4235 9.61383 1.4235 9.0235C1.4235 8.42583 1.51883 7.8795 1.7095 7.3845C1.90017 6.88583 2.16783 6.45683 2.5125 6.0975C2.86083 5.73817 3.27517 5.4595 3.7555 5.2615C4.23583 5.05983 4.7675 4.959 5.3505 4.959C5.92983 4.959 6.44317 5.05433 6.8905 5.245C7.3415 5.43567 7.72467 5.685 8.04 5.993L7.545 6.6805C7.51567 6.7245 7.47717 6.763 7.4295 6.796C7.3855 6.829 7.32317 6.8455 7.2425 6.8455C7.1875 6.8455 7.13067 6.83083 7.072 6.8015C7.01333 6.7685 6.94917 6.73 6.8795 6.686C6.80983 6.63833 6.72917 6.587 6.6375 6.532C6.54583 6.477 6.4395 6.4275 6.3185 6.3835C6.1975 6.33583 6.05633 6.29733 5.895 6.268C5.73733 6.235 5.554 6.2185 5.345 6.2185C4.98933 6.2185 4.663 6.28267 4.366 6.411C4.07267 6.53567 3.81967 6.719 3.607 6.961C3.39433 7.19933 3.22933 7.49267 3.112 7.841C2.99467 8.18567 2.936 8.57983 2.936 9.0235C2.936 9.47083 2.99833 9.86867 3.123 10.217C3.25133 10.5653 3.42367 10.8587 3.64 11.097C3.85633 11.3353 4.11117 11.5187 4.4045 11.647C4.69783 11.7717 5.01317 11.834 5.3505 11.834C5.55217 11.834 5.73367 11.823 5.895 11.801C6.06 11.779 6.21033 11.7442 6.346 11.6965C6.48533 11.6488 6.6155 11.5883 6.7365 11.515C6.86117 11.438 6.984 11.3445 7.105 11.2345C7.14167 11.2015 7.18017 11.1758 7.2205 11.1575C7.26083 11.1355 7.303 11.1245 7.347 11.1245ZM15.9725 5.047L12.7605 13H11.424L8.21196 5.047H9.39996C9.52829 5.047 9.63279 5.07817 9.71346 5.1405C9.79413 5.20283 9.85463 5.2835 9.89496 5.3825L11.7705 10.2335C11.8328 10.3912 11.8915 10.5653 11.9465 10.756C12.0051 10.943 12.0601 11.1392 12.1115 11.3445C12.1555 11.1392 12.2031 10.943 12.2545 10.756C12.3058 10.5653 12.3626 10.3912 12.425 10.2335L14.2895 5.3825C14.3188 5.29817 14.3756 5.22117 14.46 5.1515C14.548 5.08183 14.6543 5.047 14.779 5.047H15.9725Z" fill="white"/>
</svg>
