<svg width="18" height="18" viewBox="0 0 18 18" fill="none" xmlns="http://www.w3.org/2000/svg">
<rect width="18" height="18" rx="2" fill="#3A3A3A"/>
<path d="M9 2.25C8.11358 2.25 7.23583 2.42893 6.41689 2.77657C5.59794 3.12421 4.85382 3.63376 4.22703 4.27611C2.96116 5.57341 2.25 7.33293 2.25 9.16758C2.25 12.2252 4.18725 14.8192 6.867 15.7393C7.2045 15.7946 7.3125 15.5802 7.3125 15.3934C7.3125 15.2343 7.3125 14.7985 7.3125 14.2243C5.44275 14.6394 5.0445 13.2974 5.0445 13.2974C4.734 12.4949 4.29525 12.2805 4.29525 12.2805C3.681 11.8516 4.3425 11.8654 4.3425 11.8654C5.0175 11.9139 5.37525 12.578 5.37525 12.578C5.9625 13.6294 6.95475 13.3181 7.3395 13.1521C7.40025 12.7025 7.57575 12.3981 7.76475 12.2252C6.26625 12.0522 4.6935 11.4573 4.6935 8.8217C4.6935 8.05385 4.95 7.43819 5.38875 6.94704C5.32125 6.7741 5.085 6.05467 5.45625 5.1208C5.45625 5.1208 6.02325 4.93402 7.3125 5.82639C7.84575 5.6742 8.42625 5.59811 9 5.59811C9.57375 5.59811 10.1543 5.6742 10.6875 5.82639C11.9768 4.93402 12.5437 5.1208 12.5437 5.1208C12.915 6.05467 12.6788 6.7741 12.6113 6.94704C13.05 7.43819 13.3065 8.05385 13.3065 8.8217C13.3065 11.4642 11.727 12.0453 10.2218 12.2182C10.4648 12.4327 10.6875 12.8547 10.6875 13.498C10.6875 14.4249 10.6875 15.172 10.6875 15.3934C10.6875 15.5802 10.7955 15.8015 11.1398 15.7393C13.8195 14.8123 15.75 12.2252 15.75 9.16758C15.75 8.25915 15.5754 7.35962 15.2362 6.52034C14.897 5.68106 14.3998 4.91847 13.773 4.27611C13.1462 3.63376 12.4021 3.12421 11.5831 2.77657C10.7642 2.42893 9.88642 2.25 9 2.25Z" fill="white"/>
</svg>
